<svg width="661" height="144" viewBox="0 0 661 144" fill="none" xmlns="http://www.w3.org/2000/svg">
<path d="M29.1395 143.875H0L57.5998 0H77.6633L135.263 143.875H106.124L93.5704 113.109H40.7881L29.1395 143.875ZM68.434 41.4474L49.4013 88.7734H86.562L68.434 41.4474Z" fill="#1B76F2"/>
<path d="M151.919 144L119.986 41.4863H148.838L165.892 102.16L184.162 41.4863H206.402L224.671 102.16L241.726 41.4863H269.673L238.645 144H214.838L195.282 83.8735L175.725 144H151.919Z" fill="#1B76F2"/>
<path d="M307.163 143.906C290.476 143.906 275.622 136.044 268.654 122.881L284.791 110.997C289.926 119.041 297.261 124.709 307.163 124.709C315.965 124.709 321.283 121.418 321.283 116.665C321.283 110.814 316.332 108.438 301.112 103.318C282.04 97.1023 271.771 89.2408 271.771 74.0662C271.771 57.9775 287.542 46.2766 307.713 46.2766C323.117 46.2766 335.77 53.5897 341.822 64.7421L325.868 76.2601C322.017 69.8612 316.149 65.2906 307.347 65.2906C299.828 65.2906 294.143 68.7642 294.143 73.8834C294.143 78.6369 299.278 81.3793 313.581 86.4984C331.369 93.0801 343.655 99.1134 343.655 116.116C343.655 131.839 328.802 143.906 307.163 143.906Z" fill="#0B0E12"/>
<path d="M409.488 84.5653V82.4762C409.488 72.0551 401.969 66.936 390.783 66.936C380.697 66.936 371.895 71.6895 366.027 78.454L353.557 63.2795C362.359 52.8584 375.746 46.2766 392.434 46.2766C417.373 46.2766 432.593 60.1714 432.593 82.659V141.712H410.588V129.097C405.27 138.421 395.368 143.906 382.898 143.906C365.11 143.906 347.115 132.388 347.115 116.482C347.115 102.404 353.262 84.9067 382.531 84.9067L409.488 84.5653ZM387.666 125.623C400.502 125.623 409.854 118.544 409.854 106.66V102.638L388.032 102.875C370.037 102.875 370.037 108.986 370.037 115.019C370.037 121.235 380.147 125.623 387.666 125.623Z" fill="#0B0E12"/>
<path d="M448.863 116.482V6.94477H472.702V112.277C472.702 118.127 473.802 122.881 480.954 122.881C482.604 122.881 484.805 122.698 487.189 121.784V141.895C484.071 143.174 480.404 143.906 476.003 143.906C460.599 143.906 448.863 136.044 448.863 116.482Z" fill="#0B0E12"/>
<path d="M536.715 46.2766C563.305 46.2766 580.726 64.7421 580.726 89.4236C580.726 93.4458 579.992 97.6508 579.259 100.942H513.609C515.076 115.568 527.363 123.246 541.116 123.246C551.752 123.246 560.187 118.676 565.689 112.825L578.892 128.548C567.522 139.335 555.236 143.906 540.016 143.906C509.208 143.906 488.853 122.698 488.853 95.274C488.853 67.8501 508.841 46.2766 536.715 46.2766ZM536.532 66.2047C524.795 66.2047 515.443 73.1521 513.609 84.853H557.437V84.6701C556.52 73.3349 547.718 66.2047 536.532 66.2047Z" fill="#0B0E12"/>
<path d="M624.508 143.906C607.82 143.906 592.967 136.044 585.998 122.881L602.136 110.997C607.27 119.041 614.605 124.709 624.508 124.709C633.31 124.709 638.628 121.418 638.628 116.665C638.628 110.814 633.677 108.438 618.456 103.318C599.385 97.1023 589.116 89.2408 589.116 74.0662C589.116 57.9775 604.886 46.2766 625.058 46.2766C640.462 46.2766 653.115 53.5897 659.166 64.7421L643.212 76.2601C639.361 69.8612 633.493 65.2906 624.691 65.2906C617.173 65.2906 611.488 68.7642 611.488 73.8834C611.488 78.6369 616.623 81.3793 630.926 86.4984C648.714 93.0801 661 99.1134 661 116.116C661 131.839 646.146 143.906 624.508 143.906Z" fill="#0B0E12"/>
</svg>
